<svg version="1.1" id="Calque_1" xmlns="http://www.w3.org/2000/svg" xmlns:xlink="http://www.w3.org/1999/xlink" x="0px" y="0px"
	 viewBox="0 0 100 100" style="enable-background:new 0 0 100 100;" xml:space="preserve">
	<style type="text/css">
		.st0{fill:#1D1D1B;}
	</style>
	<path class="st0" d="M87.3,44.6c-3.2-20.3-22.3-34.3-42.6-31.1c0,0,0,0,0,0l1.3-1.8c0.5-0.7,0.6-1.4,0.5-2.2s-0.5-1.4-1.2-1.9
		c-1.3-1-3.1-0.7-4.1,0.6l-5.5,7.5c-0.5,0.7-0.6,1.4-0.5,2.2s0.5,1.4,1.2,1.9l7.5,5.5c0.7,0.5,1.4,0.6,2.2,0.5s1.4-0.5,1.9-1.2
		c0.5-0.7,0.6-1.4,0.5-2.2s-0.5-1.4-1.2-1.9l-1.8-1.3c17.1-2.7,33.2,9.1,35.8,26.2c2.7,17.1-9.1,33.2-26.2,35.9
		C38.2,84,22.1,72.3,19.5,55.2c-0.5-3.3-0.5-6.7,0-10c0.3-1.6-0.8-3.1-2.4-3.4c-1.6-0.3-3.1,0.8-3.4,2.4c-0.7,3.9-0.7,7.9-0.1,11.9
		c3.2,20.3,22.3,34.3,42.6,31.1C76.5,84,90.5,64.9,87.3,44.6z"/>
</svg>
